# xmcd CD database file generated by OrangeCD 5.2
#
# Track frame offsets:
#	150
#	12701
#	23351
#	38664
#	49999
#	61899
#	74616
#	89099
#	104529
#	114032
#	124120
#	135397
#	151510
#
# Disc length: 2158 seconds
#
# Revision: 0
# Processed by: cddbd v1.5.1PL0 Copyright (c) Steve Scherf et al.
# Submitted via: OrangeCD 5.2
#
DISCID=a4086c0d
DTITLE=Mike Auldridge and Old Dog - Mike Auldridge and Old Dog
DYEAR=1977
DGENRE=Bluegrass
TTITLE0=Hot Stuff
TTITLE1=Cold December
TTITLE2=A Step In The Right Direction
TTITLE3=Sweet Georgia Brown
TTITLE4=Old Dog
TTITLE5=Age
TTITLE6=Steel Guitar Rag
TTITLE7=Willie Baker
TTITLE8=Bud's Bounce
TTITLE9=Thursday
TTITLE10=Wild Kentucky Roan
TTITLE11=That Same Old Obsession
TTITLE12=Sled Ridin"
EXTD=
EXTT0=
EXTT1=
EXTT2=
EXTT3=
EXTT4=
EXTT5=
EXTT6=
EXTT7=
EXTT8=
EXTT9=
EXTT10=
EXTT11=
EXTT12=
PLAYORDER=
